<?xml version="1.0" encoding="utf-8"?>
<!-- Generator: Adobe Illustrator 27.6.1, SVG Export Plug-In . SVG Version: 6.00 Build 0)  -->
<svg version="1.1" id="Layer_1" xmlns="http://www.w3.org/2000/svg" xmlns:xlink="http://www.w3.org/1999/xlink" x="0px" y="0px"
	 viewBox="0 0 281 47" style="enable-background:new 0 0 281 47;" xml:space="preserve">
<style type="text/css">
	.st0{clip-path:url(#SVGID_00000170246525178911867010000018258596292014248371_);}
	.st1{fill:#2F2F37;}
	.st2{fill:#3F20FB;}
	.st3{fill:#77E7FF;}
	.st4{fill:#B377FF;}
</style>
<g>
	<defs>
		<rect id="SVGID_1_" x="0" width="281" height="47"/>
	</defs>
	<clipPath id="SVGID_00000091721008131105119980000016211495508242593199_">
		<use xlink:href="#SVGID_1_"  style="overflow:visible;"/>
	</clipPath>
	<g style="clip-path:url(#SVGID_00000091721008131105119980000016211495508242593199_);">
		<g>
			<rect x="149.3" y="2.1" class="st1" width="11.8" height="43.3"/>
			<path class="st1" d="M25.7,28.8c0,1.3-0.3,2.5-0.9,3.6c-0.6,1-1.4,1.9-2.5,2.5c-1,0.6-2.2,0.9-3.6,0.9c-1.3,0-2.5-0.3-3.6-0.9
				c-1-0.6-1.9-1.4-2.5-2.5c-0.6-1.1-0.9-2.3-0.9-3.6V2.1H0v27.8c0,3.3,0.8,6.2,2.3,8.6c1.6,2.4,3.8,4.3,6.6,5.6
				c2.8,1.3,6.1,1.9,9.8,1.9c3.7,0,7-0.6,9.8-1.9c2.8-1.3,5-3.2,6.6-5.6c1.6-2.4,2.4-5.3,2.4-8.6V2.1H25.7V28.8z"/>
			<path class="st1" d="M137.4,4c-2.4-1.3-5.2-1.9-8.4-1.9h-18.7v43.3H122V32.5h6.5c3.3,0,6.2-0.6,8.7-1.8c2.5-1.2,4.4-3,5.8-5.2
				c1.4-2.3,2.1-5,2.1-8.1c0-3.1-0.7-5.8-2-8.1C141.7,7,139.8,5.2,137.4,4z M131.9,20.6c-0.5,0.9-1.3,1.6-2.3,2.1
				c-1,0.5-2.2,0.7-3.5,0.7H122V11.5h4.1c1.4,0,2.6,0.2,3.5,0.7c1,0.5,1.7,1.1,2.3,2c0.5,0.9,0.8,1.9,0.8,3.2
				C132.7,18.6,132.5,19.7,131.9,20.6z"/>
			<polygon class="st1" points="243.3,2.1 243.3,11.6 256.3,11.6 256.3,45.4 267.9,45.4 267.9,11.6 280.9,11.6 280.9,2.1 			"/>
			<path class="st1" d="M230.6,4c-3.2-1.7-6.7-2.6-10.7-2.6c-4,0-7.5,0.9-10.7,2.6c-3.2,1.7-5.7,4.2-7.6,7.5
				c-1.9,3.3-2.8,7.4-2.8,12.2c0,4.8,0.9,8.8,2.8,12.2c1.9,3.3,4.4,5.8,7.6,7.5c3.2,1.7,6.8,2.6,10.7,2.6c3.9,0,7.5-0.8,10.7-2.5
				c3.2-1.7,5.7-4.2,7.6-7.5c1.9-3.3,2.8-7.4,2.8-12.2c0-4.8-0.9-8.9-2.8-12.2C236.4,8.2,233.8,5.7,230.6,4z M227.9,30.3
				c-0.7,1.8-1.7,3.1-3,4.1c-1.3,0.9-3,1.4-4.9,1.4c-1.9,0-3.6-0.5-4.9-1.4c-1.3-0.9-2.3-2.3-3-4.1c-0.7-1.8-1-4-1-6.6
				s0.3-4.8,1-6.6c0.7-1.8,1.7-3.1,3-4.1c1.3-0.9,3-1.4,4.9-1.4c1.9,0,3.6,0.5,4.9,1.4c1.3,0.9,2.3,2.3,3,4.1c0.7,1.8,1,4,1,6.6
				S228.6,28.5,227.9,30.3z"/>
			<polygon class="st1" points="178.5,2.1 166.7,2.1 166.7,45.4 196,45.4 196,35.9 178.5,35.9 			"/>
		</g>
		<g>
			<path class="st2" d="M137.4,4c-2.4-1.3-5.2-1.9-8.4-1.9h-18.7v43.3H122V32.5h6.5c3.3,0,6.2-0.6,8.7-1.8c2.5-1.2,4.4-3,5.8-5.2
				c1.4-2.3,2.1-5,2.1-8.1c0-3.1-0.7-5.8-2-8.1C141.7,7,139.8,5.2,137.4,4z M131.9,20.6c-0.5,0.9-1.3,1.6-2.3,2.1
				c-1,0.5-2.2,0.7-3.5,0.7H122V11.5h4.1c1.4,0,2.6,0.2,3.5,0.7c1,0.5,1.7,1.1,2.3,2c0.5,0.9,0.8,1.9,0.8,3.2
				C132.7,18.6,132.5,19.7,131.9,20.6z"/>
			<path class="st2" d="M25.7,28.8c0,1.3-0.3,2.5-0.9,3.6c-0.6,1-1.4,1.9-2.5,2.5c-1,0.6-2.2,0.9-3.6,0.9c-1.3,0-2.5-0.3-3.6-0.9
				c-1-0.6-1.9-1.4-2.5-2.5c-0.6-1.1-0.9-2.3-0.9-3.6V2.1H0v27.8c0,3.3,0.8,6.2,2.3,8.6c1.6,2.4,3.8,4.3,6.6,5.6
				c2.8,1.3,6.1,1.9,9.8,1.9c3.7,0,7-0.6,9.8-1.9c2.8-1.3,5-3.2,6.6-5.6c1.6-2.4,2.4-5.3,2.4-8.6V2.1H25.7V28.8z"/>
			<rect x="149.3" y="2.1" class="st2" width="11.8" height="43.3"/>
			<polygon class="st2" points="243.3,2.1 243.3,11.6 256.3,11.6 256.3,45.4 267.9,45.4 267.9,11.6 280.9,11.6 280.9,2.1 			"/>
			<polygon class="st2" points="178.5,2.1 166.7,2.1 166.7,45.4 196,45.4 196,35.9 178.5,35.9 			"/>
			<path class="st2" d="M230.6,4c-3.2-1.7-6.7-2.6-10.7-2.6c-4,0-7.5,0.9-10.7,2.6c-3.2,1.7-5.7,4.2-7.6,7.5
				c-1.9,3.3-2.8,7.4-2.8,12.2c0,4.8,0.9,8.8,2.8,12.2c1.9,3.3,4.4,5.8,7.6,7.5c3.2,1.7,6.8,2.6,10.7,2.6c3.9,0,7.5-0.8,10.7-2.5
				c3.2-1.7,5.7-4.2,7.6-7.5c1.9-3.3,2.8-7.4,2.8-12.2c0-4.8-0.9-8.9-2.8-12.2C236.4,8.2,233.8,5.7,230.6,4z M227.9,30.3
				c-0.7,1.8-1.7,3.1-3,4.1c-1.3,0.9-3,1.4-4.9,1.4c-1.9,0-3.6-0.5-4.9-1.4c-1.3-0.9-2.3-2.3-3-4.1c-0.7-1.8-1-4-1-6.6
				s0.3-4.8,1-6.6c0.7-1.8,1.7-3.1,3-4.1c1.3-0.9,3-1.4,4.9-1.4c1.9,0,3.6,0.5,4.9,1.4c1.3,0.9,2.3,2.3,3,4.1c0.7,1.8,1,4,1,6.6
				S228.6,28.5,227.9,30.3z"/>
		</g>
		<path class="st3" d="M78.6,1.1c4.1-3,9.4,1.5,7.2,6l-8.1,12.6c-0.8,1.6-0.6,3.6,0.4,5l10.1,11.1c3,4.1-1.5,9.4-6,7.2L69.6,35
			c-1.6-0.8-3.6-0.6-5,0.4L53.5,45.5c-4.1,3-9.4-1.5-7.2-6l8.1-12.6c0.8-1.6,0.6-3.6-0.4-5L43.9,10.7c-3-4.1,1.5-9.4,6-7.2l12.6,8.1
			c1.6,0.8,3.6,0.6,5-0.4L78.6,1.1z"/>
		<path class="st4" d="M82.4,3.7c4.6-2.2,9,3.2,6,7.2l-10.2,11c-1.1,1.4-1.3,3.4-0.5,5l8,12.7c2.2,4.6-3.2,9-7.2,6l-11-10.2
			c-1.4-1.1-3.4-1.3-5-0.5l-12.7,8c-4.6,2.2-9-3.2-6-7.2l10.2-11c1.1-1.4,1.3-3.4,0.5-5L46.5,7c-2.2-4.6,3.2-9,7.2-6l11,10.2
			c1.4,1.1,3.4,1.3,5,0.5L82.4,3.7z"/>
		<path class="st2" d="M80.5,2.2c4.3-2.6,9.3,2.3,6.6,6.6l-8.5,11.9c-0.9,1.5-0.9,3.5,0,5l8.5,11.9c2.6,4.3-2.3,9.3-6.6,6.6
			l-11.9-8.5c-1.5-0.9-3.5-0.9-5,0l-11.9,8.5C47.3,47,42.4,42,45,37.7l8.5-11.9c0.9-1.5,0.9-3.5,0-5L45,8.9
			c-2.6-4.3,2.3-9.3,6.6-6.6l11.9,8.5c1.5,0.9,3.5,0.9,5,0L80.5,2.2z"/>
	</g>
</g>
</svg>
